<svg id="Capa_1" enable-background="new 0 0 512 512" height="512" viewBox="0 0 512 512" width="512" xmlns="http://www.w3.org/2000/svg"><path d="m499.18 159.944c0-15.233-10.815-27.984-25.167-30.981-.127-2.596-.279-5.188-.433-7.779 6.167-12.479 7.19-40.175-1.125-61.669-5.249-13.569-13.633-23.036-24.271-27.47-20.48-20.379-53.768-32.04-91.69-32.04-37.918 0-71.203 11.655-91.684 32.023-10.932 4.542-19.352 14.27-24.539 28.089-12.455-14.703-30.197-24.652-52.994-29.77-5.116-17.865-21.352-30.347-40.427-30.347-19.091 0-35.338 12.503-40.439 30.392-17.395 3.923-31.906 10.642-43.322 20.156-3.182 2.652-3.611 7.381-.959 10.563 2.651 3.181 7.381 3.611 10.563.96 16.545-13.79 41.415-20.781 73.918-20.781h.48c39.533 0 67.584 10.271 83.375 30.528 17.531 22.489 15.567 52.081 13.72 64.569-12.811-1.457-25.376-7.841-37.429-19.043-10.753-9.993-16.967-20.209-17.022-20.302-1.085-1.813-2.885-3.083-4.956-3.5-2.07-.417-4.222.06-5.924 1.312-42.23 31.075-108.496 39.438-129.364 41.359-1.555-10.586-3.136-33.061 6.772-53.215 1.827-3.717.295-8.212-3.422-10.039s-8.212-.295-10.04 3.422c-11.58 23.557-10.086 48.841-8.252 61.505-12.532 3.621-21.727 15.192-21.727 28.878 0 14.102 9.766 25.96 22.889 29.182.137 4.049.297 8.093.503 12.123 1.215 23.646 14.763 43.785 34.389 54.235-13.843 14.9-36.135 49.785-36.424 119.996-2.256 6.29-7.918 25.384 2.188 35.49 4.672 4.672 11.826 6.09 18.793 6.09 3.81 0 7.559-.426 10.82-.974 1.067 18.872 4.114 41.467 11.705 60.919.49 1.255 1.305 2.306 2.311 3.112-3.461 4.991-5.497 11.043-5.497 17.563 0 4.142 3.358 7.5 7.5 7.5h129.221c4.142 0 7.5-3.358 7.5-7.5 0-6.521-2.035-12.572-5.497-17.563 1.006-.805 1.822-1.857 2.312-3.112 7.591-19.452 10.638-42.047 11.705-60.919 3.261.548 7.009.974 10.82.974 4.675 0 9.431-.645 13.469-2.477 3.566 1.639 7.982 2.47 13.236 2.47 2.024 0 4.173-.122 6.44-.367 1.623-.175 3.187-.402 4.653-.649.976 17.308 3.624 37.749 9.908 56.034-8.214 5.56-13.624 14.964-13.624 25.608 0 4.142 3.358 7.5 7.5 7.5h64.611c4.142 0 7.5-3.358 7.5-7.5v-23.401c0-.556-.065-1.097-.18-1.619-2.857-13.278-6.658-48.275 4.926-68.526 2.966 5.156 5.116 11.582 6.418 19.208.697 4.083 4.572 6.826 8.655 6.131 4.083-.697 6.828-4.572 6.131-8.655-2.515-14.731-7.868-26.279-15.91-34.321-1.406-1.406-3.314-2.197-5.303-2.197s-3.897.79-5.303 2.197c-21.243 21.242-18.382 62.067-15.82 80.282l-35.567.001c-12.958-38.195-8.516-95.89-8.241-98.804h129.869c.269 2.859 4.738 60.548-8.246 98.804l-35.585-.001c.539-3.865 1.096-8.756 1.439-14.262.258-4.134-2.885-7.694-7.019-7.952-4.131-.272-7.694 2.885-7.952 7.019-.751 12.059-2.649 21.035-2.667 21.119 0 .001 0 .003-.001.005-.108.507-.168 1.032-.168 1.571v23.402c0 4.142 3.358 7.5 7.5 7.5h64.611c4.142 0 7.5-3.358 7.5-7.5 0-10.645-5.411-20.05-13.627-25.61 6.277-18.268 8.926-38.687 9.904-55.984 3.261.549 7.012.975 10.824.975 6.966 0 14.122-1.418 18.793-6.09 10.109-10.109 4.44-29.214 2.185-35.497-.282-68.218-21.323-103.076-35.215-118.664 22.84-10.425 38.878-32.827 40.234-59.395.229-4.467.404-8.946.553-13.43 14.114-3.179 24.689-15.804 24.689-30.861zm-352.57-133.654c-7.907 0-15.406.415-22.538 1.196 4.882-7.533 13.396-12.486 22.778-12.486 9.37 0 17.873 4.94 22.759 12.457-7.114-.772-14.616-1.167-22.519-1.167zm142.414 470.71c2.678-4.984 7.937-8.384 13.977-8.4h33.752v8.4zm87.205 0v-8.4h33.751c6.04.016 11.3 3.415 13.978 8.4zm82.236-432.073c5.421 14.013 5.865 31.069 3.945 41.872-16.158-10.115-24.215-21.391-28.199-29.542-5.855-11.981-5.366-21.963-2.957-27.31 1.541-3.419 3.748-5.115 6.693-5.115 1.2 0 2.523.282 3.974.843 8.843 3.423 13.878 12.358 16.544 19.252zm-32.307-31.547c-3.568 2.364-6.537 5.875-8.578 10.403-4.933 10.947-3.753 25.922 3.155 40.059 5.21 10.663 15.967 25.622 37.868 38.151.616 10.344 1.016 20.732 1.194 31.132-8.707 2.455-15.725 8.783-22.552 14.965-8.279 7.497-16.1 14.579-26.325 14.579-9.729 0-14.806-3.607-21.232-8.174-7.37-5.238-16.543-11.756-33.197-11.756-16.648 0-25.819 6.518-33.188 11.755-6.426 4.567-11.502 8.175-21.232 8.175-8.213 0-14.848-4.512-22.111-10.819.283-1.655.439-3.353.439-5.087 0-13.515-8.964-24.973-21.257-28.744.722-4.924 1.4-11.784 1.269-19.722 37.321-24.369 42.902-58.376 34.59-75.358-2.033-4.155-4.834-7.369-8.143-9.586 17.719-11.785 42.199-18.35 69.636-18.35 27.451.002 51.943 6.576 69.664 18.377zm-203.541 228.925c11.059-5.888 20.185-14.848 26.262-25.786 7.181 11.952 17.789 21.371 30.398 27.116-8.724 9.795-20.271 27.188-27.726 55.668-7.803-29.816-20.092-47.482-28.934-56.998zm4.089 113.868c-1.411-20.016-7.847-37.403-8.153-38.219-1.455-3.879-5.779-5.842-9.656-4.389-3.878 1.455-5.844 5.777-4.389 9.656.075.199 22.733 79.686-1.208 130.378h-15.48-33.712v-165.989c12.344-1.19 23.817-5.298 32.884-11.881 9.96-7.231 16.065-16.68 17.6-27.008.868-.171 1.733-.351 2.588-.555 4.182 3.609 11.578 11.289 18.715 25.122 11.216 21.739 17.285 49.596 18.07 82.886h-17.259zm-80.1-83.193c-20.175 0-37.651-9.927-42.212-22.825 14.024.578 28.118.885 42.215.885s28.189-.307 42.209-.885c-4.561 12.898-22.037 22.825-42.212 22.825zm111.067-139.36c4.603 2.579 7.726 7.501 7.726 13.144 0 5.559-3.037 10.412-7.532 13.018.096-8.739.034-17.472-.194-26.162zm13.386-107.946c4.853-1.88 8.278-.617 10.47 3.861 2.37 4.842 3.171 14.049-1.687 25.369-3.033 7.067-9.075 16.745-21.036 26.116-1.371-7.866-3.755-16.11-7.657-24.16 1.803-9.174 6.842-26.132 19.91-31.186zm-243.239 121.09c0-5.642 3.121-10.563 7.723-13.142-.227 8.704-.289 17.436-.194 26.159-4.493-2.607-7.529-7.459-7.529-13.017zm23.372 40.537c-.951-18.583-1.146-37.427-.583-56.11 8.734-.778 25.005-2.622 44.434-6.707 35.231-7.407 64.229-18.535 86.344-33.12 3.284 4.427 8.295 10.541 14.833 16.664 14.386 13.474 30.289 21.424 46.39 23.269.562 18.576.365 37.383-.588 56.005-1.325 25.922-21.895 46.395-47.847 47.62-31.559 1.491-63.566 1.491-95.135 0-25.946-1.226-46.516-21.698-47.848-47.621zm34.868 60.87c.846.202 1.703.38 2.562.549 1.535 10.328 7.64 19.777 17.6 27.009 9.067 6.583 20.54 10.691 32.884 11.881v165.989h-33.708-15.48c-24.431-65.847-1.281-130.184-1.208-130.378 1.455-3.878-.511-8.201-4.389-9.656-3.877-1.454-8.202.511-9.656 4.389-.306.817-6.742 18.204-8.153 38.219h-17.255c1.724-71.315 27.805-100.146 36.803-108.002zm-39.089 139.013c-2.101-2.101-1.643-9.294.147-16.011h18.648c-.186 4.243-.337 9.934-.279 16.579-8.87 1.756-16.61 1.338-18.516-.568zm58.428 81.415h33.71v8.401h-47.729c2.684-4.996 7.961-8.401 14.019-8.401zm48.71 8.401v-8.401h33.71c6.058 0 11.335 3.405 14.019 8.401zm73.621-89.247c.058-6.645-.093-12.337-.279-16.58h18.687c2.179 7.936 1.722 14.397.109 16.011-1.907 1.907-9.649 2.324-18.517.569zm34.071.972c1.461-5.798.846-12.252-.259-17.555h14.109c-.186 4.243-.337 9.936-.279 16.583-5.249 1.039-10.089 1.314-13.571.972zm32.403-75.161c-3.877-1.454-8.201.511-9.656 4.389-.306.817-6.742 18.202-8.153 38.216h-17.255c1.687-69.781 26.708-98.895 36.207-107.47 3.126.581 6.32.968 9.573 1.122 14.732.69 29.514 1.071 44.077 1.173v88.801h-55.057c2.1-9.645 4.612-16.463 4.654-16.576 1.453-3.877-.512-8.2-4.39-9.655zm161.925 73.62c-1.906 1.907-9.652 2.324-18.521.568.058-6.646-.093-12.339-.279-16.582h18.691c2.18 7.937 1.723 14.4.109 16.014zm-20.353-113.896c11.214 21.739 17.282 49.594 18.067 82.882h-17.254c-1.411-20.014-7.847-37.4-8.153-38.216-1.455-3.879-5.779-5.842-9.656-4.389-3.878 1.455-5.844 5.777-4.389 9.656.043.116 2.562 6.919 4.663 16.576h-55.057v-88.801c14.559-.102 29.337-.483 44.068-1.173 3.27-.155 6.476-.536 9.607-1.12 4.264 3.803 11.299 11.394 18.104 24.585zm-28.417-38.45c-17.028.797-34.143 1.202-50.869 1.202-16.725 0-33.84-.404-50.866-1.202-23.353-1.105-43.049-16.683-49.506-38.945.438-2.561.747-5.168.883-7.825.206-4.032.366-8.075.503-12.121 6.327-1.552 11.873-5.109 15.921-9.962 7.39 5.991 16.709 11.684 28.644 11.684 14.518 0 22.702-5.816 29.922-10.948 6.781-4.819 12.637-8.981 24.498-8.981 11.868 0 17.726 4.163 24.509 8.983 7.221 5.131 15.405 10.947 29.921 10.947 16.008 0 26.838-9.807 36.394-18.46 4.46-4.038 8.543-7.732 12.588-9.964-.053 11.438-.358 22.862-.942 34.221-1.427 27.963-23.612 50.048-51.6 51.371zm67.492-79.969c.12-9.987.038-19.987-.239-29.974 5.644 2.667 9.568 8.401 9.568 15.049 0 6.55-3.814 12.212-9.329 14.925z"/><path d="m305.089 166.444c5.553 0 10.07-6.72 10.07-14.98s-4.517-14.979-10.07-14.979-10.07 6.72-10.07 14.979 4.517 14.98 10.07 14.98z"/><path d="m407.894 166.444c5.553 0 10.07-6.72 10.07-14.98s-4.517-14.979-10.07-14.979-10.07 6.72-10.07 14.979 4.517 14.98 10.07 14.98z"/><path d="m382.292 194.811c-3.741-1.775-8.215-.182-9.991 3.56-2.884 6.075-9.09 10.001-15.813 10.001s-12.929-3.926-15.813-10.001c-1.775-3.742-6.247-5.335-9.991-3.56-3.742 1.776-5.336 6.25-3.56 9.992 5.354 11.28 16.879 18.569 29.363 18.569s24.01-7.289 29.363-18.569c1.778-3.743.185-8.216-3.558-9.992z"/><path d="m146.609 219.859c11.852 0 22.794-6.92 27.876-17.629 1.776-3.742.183-8.215-3.56-9.991s-8.215-.182-9.991 3.56c-2.613 5.504-8.236 9.061-14.326 9.061s-11.713-3.556-14.325-9.06c-1.776-3.742-6.249-5.337-9.991-3.561s-5.336 6.25-3.561 9.992c5.084 10.708 16.026 17.628 27.878 17.628z"/><path d="m108.014 163.843c0-7.725-4.227-14.01-9.423-14.01s-9.423 6.285-9.423 14.01 4.227 14.01 9.423 14.01 9.423-6.285 9.423-14.01z"/><path d="m194.628 177.853c5.196 0 9.423-6.285 9.423-14.01s-4.227-14.01-9.423-14.01-9.423 6.285-9.423 14.01 4.227 14.01 9.423 14.01z"/><path d="m178.198 397.736c-4.142 0-7.5 3.358-7.5 7.5s3.358 7.5 7.5 7.5h24.929c4.142 0 7.5-3.358 7.5-7.5s-3.358-7.5-7.5-7.5z"/><path d="m82.586 405.236c0 4.142 3.358 7.5 7.5 7.5h24.929c4.142 0 7.5-3.358 7.5-7.5s-3.358-7.5-7.5-7.5h-24.929c-4.142 0-7.5 3.358-7.5 7.5z"/></svg>